<svg width="352" height="352" viewBox="0 0 352 352" fill="none" xmlns="http://www.w3.org/2000/svg">
<path fill-rule="evenodd" clip-rule="evenodd" d="M315.545 144.593C315.227 145.212 315.135 145.924 315.279 146.605C325.994 197.575 308.232 252.575 264.735 287.265C203.285 336.272 113.742 326.185 64.7351 264.735C15.728 203.285 25.8148 113.742 87.2647 64.7352C145.191 18.5379 228.082 24.8525 278.448 77.2031C279.902 78.7143 282.437 78.3868 283.395 76.5214L286.715 70.0564C290.806 62.0894 302.194 62.0894 306.285 70.0564L316.819 90.57C317.806 92.4918 319.336 94.0805 321.22 95.1378L341.908 106.748C349.397 110.951 349.397 121.731 341.908 125.933L321.22 137.544C319.336 138.601 317.806 140.19 316.819 142.112L315.545 144.593Z" fill="#F9FAFB"/>
<path d="M270.985 120.273C267.778 118.474 267.778 113.858 270.985 112.058L283.901 104.809C284.708 104.356 285.364 103.676 285.786 102.853L292.475 89.8262C294.227 86.4145 299.104 86.4145 300.856 89.8262L307.545 102.853C307.967 103.676 308.623 104.356 309.43 104.809L322.346 112.058C325.553 113.858 325.553 118.474 322.346 120.273L309.43 127.523C308.623 127.975 307.967 128.656 307.545 129.479L300.856 142.505C299.104 145.917 294.227 145.917 292.475 142.505L285.786 129.479C285.364 128.656 284.708 127.975 283.901 127.523L270.985 120.273Z" fill="#1F2937"/>
<path d="M172.666 59.6656C185.211 82.3401 202.67 137.408 174.528 179.615C173.946 180.489 174.772 181.681 175.788 181.413C204.715 173.788 261.768 173.654 281.666 229.666" stroke="#1F2937" stroke-width="19.7395"/>
<path d="M260.085 97.3528C264.074 93.6532 264.332 87.3883 260.33 83.7037C240.798 65.7213 215.972 54.363 189.415 51.4241C159.583 48.1228 129.559 55.6655 104.83 72.6739C80.1005 89.6823 62.3165 115.021 54.7275 144.059C47.1385 173.098 50.2512 203.898 63.4969 230.83C76.7425 257.763 99.2367 279.031 126.869 290.748C154.502 302.464 185.427 303.847 213.995 294.644C242.563 285.441 266.866 266.265 282.463 240.622C296.348 217.794 302.507 191.196 300.188 164.749C299.713 159.33 294.593 155.71 289.228 156.61C283.864 157.51 280.293 162.591 280.688 168.016C282.274 189.784 277.058 211.6 265.632 230.386C252.493 251.987 232.021 268.141 207.955 275.894C183.889 283.647 157.837 282.482 134.559 272.612C111.281 262.741 92.3322 244.825 81.174 222.137C70.0158 199.448 67.3936 173.503 73.7866 149.04C80.1797 124.578 95.161 103.233 115.993 88.9048C136.825 74.5768 162.118 68.2228 187.248 71.0038C209.102 73.4223 229.565 82.6088 245.838 97.1536C249.894 100.779 256.097 101.052 260.085 97.3528Z" fill="#1F2937"/>
<path d="M142.426 288.791C142.538 294.277 147.237 298.587 152.647 297.672C175.11 293.872 196.39 282.889 213.654 266.033C233.467 246.688 246.764 220.806 251.277 192.802C255.791 164.798 251.241 136.405 238.404 112.466C227.188 91.5492 210.252 75.1649 189.909 65.3611C185.052 63.0203 179.419 65.6942 177.627 70.7798C175.874 75.7577 178.472 81.1736 183.193 83.533C199.829 91.8477 213.68 105.429 222.921 122.662C233.734 142.828 237.567 166.747 233.765 190.338C229.962 213.929 218.761 235.732 202.071 252.028C187.677 266.082 169.969 275.289 151.261 278.581C146.242 279.464 142.322 283.695 142.426 288.791Z" fill="#1F2937"/>
</svg>
