<svg width="352" height="352" viewBox="0 0 352 352" fill="none" xmlns="http://www.w3.org/2000/svg">
<path d="M271.319 120.608C268.112 118.808 268.112 114.192 271.319 112.392L284.236 105.143C285.043 104.69 285.698 104.01 286.121 103.187L292.81 90.1606C294.562 86.7488 299.438 86.7488 301.19 90.1606L307.879 103.187C308.302 104.01 308.957 104.69 309.764 105.143L322.681 112.392C325.888 114.192 325.888 118.808 322.681 120.608L309.764 127.857C308.957 128.31 308.302 128.99 307.879 129.813L301.19 142.839C299.438 146.251 294.562 146.251 292.81 142.839L286.121 129.813C285.698 128.99 285.043 128.31 284.236 127.857L271.319 120.608Z" fill="black"/>
<path d="M173 60C185.546 82.6744 203.005 137.742 174.863 179.95C174.28 180.824 175.107 182.015 176.122 181.748C205.049 174.122 262.102 173.988 282 230" stroke="black" stroke-width="19.7395"/>
<path d="M260.42 97.6872C264.408 93.9876 264.666 87.7226 260.664 84.0381C241.133 66.0556 216.306 54.6974 189.749 51.7584C159.917 48.4571 129.894 55.9998 105.164 73.0082C80.4349 90.0166 62.6508 115.355 55.0618 144.394C47.4728 173.432 50.5855 204.232 63.8312 231.165C77.0769 258.098 99.5711 279.366 127.204 291.082C154.836 302.799 185.762 304.182 214.33 294.978C242.898 285.775 267.2 266.6 282.797 240.957C296.682 218.128 302.842 191.531 300.523 165.083C300.047 159.664 294.928 156.044 289.563 156.945V156.945C284.198 157.845 280.627 162.925 281.023 168.351C282.609 190.119 277.392 211.934 265.967 230.72C252.828 252.322 232.355 268.475 208.289 276.228C184.223 283.981 158.171 282.816 134.894 272.946C111.616 263.076 92.6666 245.16 81.5084 222.471C70.3501 199.783 67.728 173.837 74.121 149.375C80.514 124.912 95.4954 103.567 116.328 89.2391C137.16 74.9112 162.452 68.5572 187.582 71.3382C209.436 73.7566 229.899 82.9431 246.172 97.4879C250.228 101.113 256.432 101.387 260.42 97.6872V97.6872Z" fill="black"/>
<path d="M142.76 289.126C142.872 294.611 147.572 298.922 152.981 298.007C175.444 294.207 196.724 283.223 213.988 266.367C233.801 247.022 247.098 221.141 251.611 193.136C256.125 165.132 251.575 136.739 238.739 112.8C227.522 91.8835 210.586 75.4992 190.243 65.6955C185.386 63.3547 179.753 66.0285 177.961 71.1141V71.1141C176.208 76.0921 178.806 81.5079 183.527 83.8674C200.164 92.1821 214.014 105.763 223.255 122.997C234.069 143.163 237.901 167.081 234.099 190.672C230.297 214.263 219.095 236.066 202.405 252.362C188.011 266.416 170.304 275.624 151.596 278.915C146.576 279.798 142.656 284.03 142.76 289.126V289.126Z" fill="black"/>
</svg>
